<svg id="Layer_1" data-name="Layer 1" xmlns="http://www.w3.org/2000/svg" viewBox="0 0 279 116.5"><defs><style>.cls-1{fill:#fff;}.cls-2{fill:#4b9e46;}.cls-3{fill:#f8c11a;}.cls-4{fill:#f89c27;}.cls-5{fill:#e6253d;}</style></defs><g id="Layer_2" data-name="Layer 2"><g id="Layer_1-2" data-name="Layer 1-2"><path class="cls-1" d="M68.3,27.4a.53.53,0,0,0,.6.6h2a.53.53,0,0,0,.6-.6V24.7c0-4.5-2-5.8-5.3-7.7-3.1-1.7-4.4-5.1-4.4-8.7V6a6,6,0,0,1,6-6h4.5c3.3,0,6,3.5,6,8.1H71.6c0-1.6-.2-2.2-.9-2.2H69a.53.53,0,0,0-.6.6V8.3c0,2.6,1.9,3.4,4.9,5.1,3.2,1.9,4.8,5.8,4.8,11.3v3.2a6,6,0,0,1-6,6H67.7a6,6,0,0,1-6-6V21.8h6.6Z"/><path class="cls-1" d="M87.3,27c0,.7.2,1,.6,1H90c.4,0,.6-.3.6-1V.2h6.6V27.8a6,6,0,0,1-6,6H86.6a6,6,0,0,1-6-6V.2h6.6Z"/><path class="cls-1" d="M106.4,27.4a.53.53,0,0,0,.6.6h2a.53.53,0,0,0,.6-.6V24.7c0-4.5-2-5.8-5.3-7.7-3.1-1.7-4.4-5.1-4.4-8.7V6a6,6,0,0,1,6-6h4.5c3.3,0,6,3.5,6,8.1h-6.6c0-1.6-.2-2.2-.9-2.2h-1.8a.53.53,0,0,0-.6.6V8.3c0,2.6,1.9,3.4,4.9,5.1,3.2,1.9,4.8,5.8,4.8,11.3v3.2a6,6,0,0,1-6,6h-4.4a6,6,0,0,1-6-6V21.8h6.6Z"/><path class="cls-1" d="M117.4.2H135V6.8h-5.4V33.3H123V6.9h-5.5Z"/><path class="cls-1" d="M141.3,26.8l-.8,6.6h-6.6l5-31.8A1.83,1.83,0,0,1,140.7.2H148a1.92,1.92,0,0,1,1.8,1.4l5,31.8h-6.6l-.8-6.6ZM145,7.6c0-.5-.1-.7-.3-.7H144c-.2,0-.3.2-.3.7l-1.5,12.6h4.4Z"/><path class="cls-1" d="M163.6,33.4H157V.2h6.6Z"/><path class="cls-1" d="M180.6,26.8h.5L180.6.3h6.6V33.5H176.3L173.7,7h-.4l.4,26.5h-6.6V.2h11Z"/><path class="cls-1" d="M196.8,26.8l-.8,6.6h-6.6l5-31.8A2,2,0,0,1,196.2.2h7.3a1.92,1.92,0,0,1,1.8,1.4l5,31.8h-6.6l-.8-6.6Zm3.7-19.2c0-.5-.1-.7-.3-.7h-.7c-.2,0-.3.2-.3.7l-1.5,12.6h4.4Z"/><path class="cls-1" d="M228.8,8.1v3.1c0,3.8-1.3,4.2-3.2,4.9,1.8.2,3.5.8,3.5,5v3.6c0,6.9-1.9,8.8-8.8,8.8h-7.9V.2H220C226.8.2,228.8,1.9,228.8,8.1Zm-6.6,3.2V8.2c0-1.2-.6-1.5-2-1.5H219v6h1.4C221.7,12.8,222.2,12.4,222.2,11.3Zm.2,13.2V21.1c0-1.4-.4-1.7-1.7-1.7H219v7.4h1.3C221.9,26.8,222.4,26.2,222.4,24.5Z"/><path class="cls-1" d="M238.5,26.8H246v6.6H232V.2h6.6Z"/><path class="cls-1" d="M262.1,6.9h-7.6v6.2h6.4v6.6h-6.4v7.1H262v6.6H247.8V.2H262V6.9Z"/><path class="cls-1" d="M78.9,47.5V69a6,6,0,0,1-6,6H62.2V41.7H72.9a5.79,5.79,0,0,1,6,5.5Zm-6.7,21V48.3c0-.5-.2-.6-.6-.6H68.8V69h2.8c.5,0,.6-.1.6-.5Z"/><path class="cls-1" d="M96.1,48.4H88.6v6.2H95v6.6H88.6v7.1h7.6v6.6H81.9V41.7H96.1Z"/><path class="cls-1" d="M107.2,68.1c.1.7.2,1,.5,1h.6c.2,0,.4-.3.4-1l3-26.4h6.6l-5.1,32.2a1.92,1.92,0,0,1-1.8,1.4h-7.1a1.92,1.92,0,0,1-1.8-1.4L97.4,41.7h6.8Z"/><path class="cls-1" d="M134.7,48.4h-7.6v6.2h6.4v6.6h-6.4v7.1h7.5v6.6H120.4V41.7h14.2l.1,6.7Z"/><path class="cls-1" d="M143.8,68.3h7.5v6.6H137.2V41.7h6.6Z"/><path class="cls-1" d="M158.9,41.5h4.7a6,6,0,0,1,6,6V69.4a6,6,0,0,1-6,6h-4.7a6,6,0,0,1-6-6V47.5A6,6,0,0,1,158.9,41.5Zm1.2,28h2.2a.53.53,0,0,0,.6-.6V48a.53.53,0,0,0-.6-.6h-2.2a.53.53,0,0,0-.6.6V68.9a.53.53,0,0,0,.6.6Z"/><path class="cls-1" d="M189,47.5v8a5.93,5.93,0,0,1-5.9,6h-4V75h-6.6V41.7H183a5.73,5.73,0,0,1,6,5.5ZM182.4,55V48.4c0-.5-.2-.8-.6-.8h-2.6v7.9h2.7C182.2,55.6,182.4,55.4,182.4,55Z"/><path class="cls-1" d="M205.4,64.2l1.8-22.4h11.2L219.6,75H213l-.8-26.6h-.4l-3.2,26.1h-6.5L199,48.4h-.4L197.8,75h-6.6l1.3-33.2h10.9Z"/><path class="cls-1" d="M237,48.4h-7.6v6.2h6.4v6.6h-6.4v7.1H237v6.6H222.8V41.7H237Z"/><path class="cls-1" d="M253,68.3h.5L253,41.7h6.6V74.9H248.7l-2.6-26.6h-.4l.4,26.6h-6.6V41.7h11Z"/><path class="cls-1" d="M261.5,41.7H279v6.6h-5.4V74.9H267V48.4h-5.5Z"/><path class="cls-1" d="M78.8,88.2v6a5.5,5.5,0,0,1-3.2,4.9,5.39,5.39,0,0,1,3.5,5v12.4H72.5v-12a2.49,2.49,0,0,0-.7-2H68.9v14H62.3V83.2H73.9A5.06,5.06,0,0,1,78.8,88.2Zm-6.7,6.1V89.6q0-.6-.3-.6h-3v6.8h2.6C71.9,95.6,72.1,95.2,72.1,94.3Z"/><path class="cls-1" d="M96.1,89.9H88.5v6.2H95v6.6H88.6v7.1h7.6v6.6H82V83.2H96.1Z"/><path class="cls-1" d="M115.2,89v8a6,6,0,0,1-6,6h-3.9v13.5H98.7V83.2h10.5a5.79,5.79,0,0,1,6,5.5Zm-6.6,7.5V89.9c0-.5-.2-.7-.6-.7h-2.6v7.9h2.7c.3,0,.5-.2.5-.6Z"/><path class="cls-1" d="M123.1,83h4.7a5.93,5.93,0,0,1,6,5.9v22a5.93,5.93,0,0,1-5.9,6h-4.8a5.93,5.93,0,0,1-6-5.9V89a5.93,5.93,0,0,1,5.9-6Zm1.2,28h2.2a.53.53,0,0,0,.6-.6v-21a.53.53,0,0,0-.6-.6h-2.2a.53.53,0,0,0-.6.6v20.9C123.7,110.8,123.9,111,124.3,111Z"/><path class="cls-1" d="M153.3,88.2v6a5.5,5.5,0,0,1-3.2,4.9,5.39,5.39,0,0,1,3.5,5v12.4H147v-12a2.49,2.49,0,0,0-.7-2h-2.9v14h-6.6V83.2h11.6A5.06,5.06,0,0,1,153.3,88.2Zm-6.7,6.1V89.6q0-.6-.3-.6h-2.9v6.8H146c.4-.2.6-.6.6-1.5Z"/><path class="cls-1" d="M154.9,83.2h17.6v6.6H167v26.6h-6.6V89.9h-5.5Z"/></g></g><path class="cls-2" d="M19.47,11.82A9.55,9.55,0,1,1,9.92,2.27a9.56,9.56,0,0,1,9.55,9.55"/><path class="cls-3" d="M48.1,40.46a9.55,9.55,0,1,1-9.54-9.55,9.54,9.54,0,0,1,9.54,9.55"/><path class="cls-4" d="M19.47,69.1a9.55,9.55,0,1,1-9.55-9.55,9.55,9.55,0,0,1,9.55,9.55"/><path class="cls-5" d="M48.1,97.73a9.55,9.55,0,1,1-9.54-9.54,9.54,9.54,0,0,1,9.54,9.54"/><path class="cls-2" d="M47.42,8.83a2.4,2.4,0,0,1,0,3.35,2.36,2.36,0,0,1-1.71.7,2.47,2.47,0,0,1-1.71-.7l-3.07-3.1V21.24a2.38,2.38,0,1,1-4.75,0V9.08l-3.07,3.1a2.35,2.35,0,0,1-1.71.7,2.25,2.25,0,0,1-1.68-.7,2.34,2.34,0,0,1,0-3.35L38.59,0Z"/><path class="cls-3" d="M19.09,45a2.62,2.62,0,0,1-2.57,2.64,2.89,2.89,0,0,1-1.88-.77A2.62,2.62,0,0,1,13.88,45V40.18L4.5,49.66a2.66,2.66,0,0,1-3.72,0,2.61,2.61,0,0,1,0-3.72l9.38-9.45H5.37a2.56,2.56,0,0,1-1.84-.76,2.59,2.59,0,0,1-.77-1.81,2.66,2.66,0,0,1,2.61-2.67H19.09Z"/><path class="cls-4" d="M41.57,77.93a2.37,2.37,0,0,1-3.39,0,2.37,2.37,0,0,1,0-3.36s1.46-1.49,3-3.07H29.12a2.41,2.41,0,0,1,0-4.82h12.1c-1.58-1.55-3-3.1-3-3.1a2.22,2.22,0,0,1-.7-1.68,2.52,2.52,0,0,1,.7-1.71,2.57,2.57,0,0,1,3.39,0l8.84,8.9Z"/><path class="cls-5" d="M1.32,99.68A2.4,2.4,0,0,1,3,95.59a2.5,2.5,0,0,1,1.71.7s1.46,1.55,3.07,3.1V87.3a2.38,2.38,0,1,1,4.75,0V99.39c1.61-1.55,3.07-3.1,3.07-3.1a2.66,2.66,0,0,1,1.71-.7,2.54,2.54,0,0,1,1.71.7,2.43,2.43,0,0,1,0,3.39l-8.83,8.92Z"/></svg>